<svg xmlns="http://www.w3.org/2000/svg" xmlns:xlink="http://www.w3.org/1999/xlink" width="1920" zoomAndPan="magnify" viewBox="0 0 1440 809.999993" height="1080" preserveAspectRatio="xMidYMid meet" version="1.0"><defs><clipPath id="3740328f15"><path d="M 360 0 L 1079.917969 0 L 1079.917969 810 L 360 810 Z M 360 0 " clip-rule="nonzero"/></clipPath></defs><g clip-path="url(#3740328f15)"><path fill="#a6a6a6" d="M 1038.933594 688.5 L 968.058594 688.5 L 968.058594 486 C 968.058594 463.675781 949.882812 445.5 927.558594 445.5 L 816.183594 445.5 L 816.183594 364.5 C 816.183594 342.175781 798.007812 324 775.683594 324 L 664.308594 324 C 641.980469 324 623.808594 342.175781 623.808594 364.5 L 623.808594 526.5 L 512.433594 526.5 C 490.105469 526.5 471.933594 544.675781 471.933594 567 L 471.933594 688.5 L 401.058594 688.5 C 378.730469 688.5 360.558594 706.675781 360.558594 729 L 360.558594 769.5 C 360.558594 791.824219 378.730469 810 401.058594 810 L 1038.933594 810 C 1061.257812 810 1079.433594 791.824219 1079.433594 769.5 L 1079.433594 729 C 1079.433594 706.675781 1061.257812 688.5 1038.933594 688.5 Z M 927.558594 486 L 927.558594 688.5 L 816.183594 688.5 L 816.183594 486 Z M 512.433594 567 L 623.808594 567 L 623.808594 688.5 L 512.433594 688.5 Z M 1038.933594 769.5 L 401.058594 769.5 L 401.058594 729 L 644.058594 729 C 655.246094 729 664.308594 719.9375 664.308594 708.75 L 664.308594 364.5 L 775.683594 364.5 L 775.683594 688.5 L 765.558594 688.5 C 754.367188 688.5 745.308594 697.5625 745.308594 708.75 C 745.308594 719.9375 754.367188 729 765.558594 729 L 1038.933594 729 Z M 725.058594 708.75 C 725.058594 719.9375 715.996094 729 704.808594 729 C 693.617188 729 684.558594 719.9375 684.558594 708.75 C 684.558594 697.5625 693.617188 688.5 704.808594 688.5 C 715.996094 688.5 725.058594 697.5625 725.058594 708.75 Z M 633.679688 170.554688 L 625.984375 240.773438 C 625.171875 248.0625 628.414062 255.25 634.4375 259.503906 C 640.460938 263.757812 648.308594 264.363281 654.890625 261.226562 L 714.933594 232.367188 L 774.972656 261.277344 C 777.757812 262.59375 780.796875 263.25 783.78125 263.25 C 787.882812 263.25 791.984375 261.984375 795.476562 259.554688 C 801.5 255.300781 804.691406 248.113281 803.929688 240.824219 L 796.234375 170.605469 L 841.59375 118.714844 C 846.304688 113.296875 847.824219 105.804688 845.542969 98.972656 C 843.265625 92.136719 837.546875 87.074219 830.558594 85.554688 L 765.558594 71.734375 L 732.800781 10.683594 C 729.257812 4.101562 722.375 0 714.933594 0 C 707.488281 0 700.605469 4.101562 697.0625 10.683594 L 664.308594 71.734375 L 599.304688 85.554688 C 592.265625 87.023438 586.546875 92.136719 584.320312 98.972656 C 582.09375 105.804688 583.558594 113.296875 588.269531 118.714844 Z M 681.976562 109.402344 C 687.796875 108.1875 692.808594 104.4375 695.59375 99.175781 L 714.933594 63.078125 L 734.269531 99.125 C 737.105469 104.390625 742.066406 108.136719 747.890625 109.351562 L 788.339844 117.957031 L 759.835938 150.609375 C 756.089844 154.863281 754.316406 160.53125 754.976562 166.152344 L 759.683594 208.929688 L 723.742188 191.617188 C 720.957031 190.300781 717.96875 189.640625 714.984375 189.640625 C 711.996094 189.640625 708.957031 190.300781 706.222656 191.617188 L 670.28125 208.929688 L 674.988281 166.152344 C 675.597656 160.53125 673.824219 154.914062 670.128906 150.609375 L 641.527344 117.957031 Z M 681.976562 109.402344 " fill-opacity="1" fill-rule="nonzero"/></g></svg>