<svg xmlns="http://www.w3.org/2000/svg" xmlns:xlink="http://www.w3.org/1999/xlink" width="1920" zoomAndPan="magnify" viewBox="0 0 1440 809.999993" height="1080" preserveAspectRatio="xMidYMid meet" version="1.0"><defs><clipPath id="0b51385862"><path d="M 983 440 L 1124.425781 440 L 1124.425781 583 L 983 583 Z M 983 440 " clip-rule="nonzero"/></clipPath></defs><path fill="#a6a6a6" d="M 983.769531 0 C 992.179688 2.15625 1000.449219 4.890625 1008.503906 8.125 C 1025.835938 15.03125 1040.722656 27.183594 1050.933594 42.859375 C 1061.144531 58.535156 1066.320312 77.015625 1065.671875 95.714844 C 1066.320312 188.910156 1065.671875 281.960938 1065.671875 375.300781 C 1065.671875 377.027344 1065.671875 378.96875 1065.097656 381.269531 C 1044.246094 376.953125 1022.527344 379.542969 1003.253906 388.675781 L 1003.253906 125.914062 L 377.921875 125.914062 C 377.921875 128.503906 377.417969 131.308594 377.417969 134.042969 L 377.417969 651.078125 C 377.417969 676.246094 389.355469 688.183594 414.238281 688.183594 L 721.941406 688.183594 C 715.972656 708.535156 710.292969 728.667969 704.179688 747.871094 C 702.957031 749.59375 700.945312 750.671875 698.785156 750.746094 L 413.230469 750.746094 C 392.449219 751.609375 372.023438 745.640625 355.054688 733.703125 C 338.15625 721.765625 325.570312 704.507812 319.386719 684.730469 C 317.734375 679.480469 316.4375 674.160156 315 668.550781 L 315 82.335938 C 315.574219 81.042969 316.152344 79.675781 316.511719 78.238281 C 321.398438 47.316406 341.824219 20.996094 370.515625 8.628906 C 379.359375 5.105469 388.421875 2.230469 397.625 0 L 983.769531 0 " fill-opacity="1" fill-rule="nonzero"/><path fill="#a6a6a6" d="M 872.953125 751.609375 C 870.003906 736.148438 867.273438 721.335938 864.253906 706.664062 C 863.820312 704.722656 862.453125 703.140625 860.65625 702.277344 C 845.84375 698.96875 830.8125 695.949219 815.640625 692.929688 C 810.105469 711.699219 805.359375 729.820312 799.460938 747.582031 C 797.304688 754.054688 799.53125 761.101562 804.855469 765.34375 C 808.664062 769.515625 814.921875 770.449219 819.738281 767.5 Z M 948.171875 520.703125 L 1047.265625 619.003906 C 1045.753906 620.730469 1043.957031 622.671875 1042.160156 624.398438 C 993.621094 673.011719 944.792969 721.621094 895.75 770.160156 C 892.011719 773.902344 887.480469 776.632812 882.519531 778.214844 C 847.929688 788.785156 813.195312 798.925781 778.390625 808.847656 C 774.363281 810.144531 770.121094 810.289062 766.09375 809.496094 C 762.714844 808.5625 759.980469 806.261719 758.328125 803.242188 C 756.675781 800.21875 756.316406 796.625 757.320312 793.316406 C 768.109375 755.5625 779.109375 718.027344 790.257812 680.847656 C 791.261719 678.117188 792.84375 675.597656 795.003906 673.65625 C 845.484375 622.746094 896.035156 572.121094 946.519531 521.78125 C 947.019531 521.277344 947.523438 520.917969 948.171875 520.703125 " fill-opacity="1" fill-rule="nonzero"/><path fill="#a6a6a6" d="M 908.910156 375.875 L 908.910156 437.214844 L 471.691406 437.214844 L 471.691406 375.875 L 908.910156 375.875 " fill-opacity="1" fill-rule="nonzero"/><path fill="#a6a6a6" d="M 908.835938 250.96875 L 908.835938 312.449219 L 471.621094 312.449219 L 471.621094 250.96875 L 908.835938 250.96875 " fill-opacity="1" fill-rule="nonzero"/><path fill="#a6a6a6" d="M 879.570312 501.074219 C 850.660156 521.421875 822.902344 541.558594 794.285156 560.902344 C 791.046875 562.484375 787.453125 563.273438 783.855469 563.132812 L 479.960938 563.132812 C 477.375 563.132812 474.785156 563.132812 471.476562 562.484375 L 471.40625 501.074219 L 879.570312 501.074219 " fill-opacity="1" fill-rule="nonzero"/><g clip-path="url(#0b51385862)"><path fill="#a6a6a6" d="M 1077.324219 582.976562 L 983.695312 490.574219 C 997.574219 475.832031 1010.519531 460.441406 1025.261719 447.140625 C 1030.941406 442.679688 1038.132812 440.453125 1045.324219 440.8125 C 1052.585938 441.171875 1059.488281 444.191406 1064.667969 449.226562 C 1082.355469 465.835938 1099.617188 483.023438 1116.15625 500.785156 C 1121.546875 506.753906 1124.496094 514.449219 1124.496094 522.5 C 1124.496094 530.484375 1121.546875 538.25 1116.15625 544.148438 C 1114.5 546.230469 1112.632812 548.171875 1110.761719 550.042969 L 1077.324219 582.976562 " fill-opacity="1" fill-rule="nonzero"/></g></svg>