<svg xmlns="http://www.w3.org/2000/svg" xmlns:xlink="http://www.w3.org/1999/xlink" width="1920" zoomAndPan="magnify" viewBox="0 0 1440 809.999993" height="1080" preserveAspectRatio="xMidYMid meet" version="1.0"><path fill="#a6a6a6" d="M 981.289062 391.933594 C 988.484375 391.933594 994.355469 397.804688 994.355469 405 L 994.355469 509.515625 L 1020.484375 509.515625 L 1020.484375 431.128906 C 1020.484375 423.933594 1026.351562 418.066406 1033.546875 418.066406 C 1040.742188 418.066406 1046.613281 423.933594 1046.613281 431.128906 L 1046.613281 509.515625 L 1072.742188 509.515625 L 1072.742188 457.257812 C 1072.742188 450.0625 1078.609375 444.195312 1085.804688 444.195312 C 1093.003906 444.195312 1098.871094 450.0625 1098.871094 457.257812 L 1098.871094 614.746094 C 1098.871094 620.820312 1097.441406 626.894531 1094.738281 632.300781 L 1072.742188 676.292969 L 1072.742188 705.484375 L 863.710938 705.484375 L 863.710938 675.015625 L 830.230469 630.363281 C 826.148438 624.902344 823.546875 618.472656 822.679688 611.734375 L 813.441406 537.636719 C 811.808594 524.722656 807.164062 512.167969 799.917969 501.351562 L 786.496094 481.191406 C 785.730469 480.019531 785.324219 478.691406 785.324219 477.3125 C 785.324219 473.4375 788.4375 470.324219 792.3125 470.324219 C 819.921875 470.324219 843.859375 489.96875 849.265625 517.019531 L 866.058594 600.96875 L 897.902344 600.96875 L 909.078125 578.667969 C 913.570312 569.632812 915.96875 559.527344 915.96875 549.425781 L 915.96875 274.355469 C 915.96875 267.160156 921.835938 261.289062 929.03125 261.289062 C 936.226562 261.289062 942.097656 267.160156 942.097656 274.355469 L 942.097656 509.515625 L 968.226562 509.515625 L 968.226562 405 C 968.226562 397.804688 974.09375 391.933594 981.289062 391.933594 Z M 1098.871094 783.871094 L 837.582031 783.871094 L 837.582031 731.613281 L 1098.871094 731.613281 Z M 924.695312 235.621094 C 887.082031 210.207031 857.6875 174.890625 839.773438 133.09375 C 838.296875 129.675781 837.582031 126.101562 837.582031 121.152344 C 837.582031 114.007812 840.488281 107.015625 845.542969 101.964844 L 863.710938 83.796875 C 870.597656 76.90625 882.949219 76.90625 889.839844 83.796875 L 912.855469 106.8125 C 914.84375 108.855469 915.96875 111.457031 915.96875 114.316406 L 915.96875 116.050781 C 915.96875 120.082031 913.722656 123.703125 910.097656 125.492188 C 897.597656 131.769531 889.839844 144.320312 889.839844 158.304688 L 889.839844 160.039062 C 889.839844 169.839844 893.667969 179.074219 900.605469 186.015625 L 912.855469 198.265625 C 919.796875 205.203125 929.03125 209.03125 938.832031 209.03125 L 940.566406 209.03125 C 954.550781 209.03125 967.101562 201.273438 973.378906 188.773438 C 975.167969 185.148438 978.789062 182.902344 982.820312 182.902344 L 984.554688 182.902344 C 987.414062 182.902344 990.015625 184.027344 992.058594 186.015625 L 1015.074219 209.03125 C 1018.492188 212.453125 1020.484375 217.25 1020.484375 222.097656 C 1020.484375 226.945312 1018.492188 231.742188 1015.074219 235.160156 L 996.90625 253.328125 C 988.894531 261.339844 975.726562 263.484375 965.570312 258.433594 L 964.449219 257.871094 C 958.222656 244.5 944.75 235.160156 929.03125 235.160156 C 927.550781 235.160156 926.125 235.417969 924.695312 235.621094 Z M 798.386719 313.546875 C 776.75 313.546875 759.195312 295.992188 759.195312 274.355469 L 759.195312 65.324219 C 759.195312 43.683594 776.75 26.128906 798.386719 26.128906 L 1059.675781 26.128906 C 1081.316406 26.128906 1098.871094 43.683594 1098.871094 65.324219 L 1098.871094 274.355469 C 1098.871094 295.992188 1081.316406 313.546875 1059.675781 313.546875 L 968.226562 313.546875 L 968.226562 286.296875 C 971.339844 286.910156 974.503906 287.417969 977.71875 287.417969 C 991.699219 287.417969 1005.429688 281.753906 1015.378906 271.804688 L 1033.546875 253.636719 C 1041.96875 245.214844 1046.613281 233.988281 1046.613281 222.097656 C 1046.613281 210.207031 1041.96875 198.980469 1033.546875 190.558594 L 1010.53125 167.542969 C 1003.59375 160.601562 994.355469 156.773438 984.554688 156.773438 L 982.820312 156.773438 C 968.839844 156.773438 956.285156 164.53125 950.007812 177.035156 C 948.222656 180.65625 944.597656 182.902344 940.566406 182.902344 L 938.832031 182.902344 C 935.972656 182.902344 933.371094 181.78125 931.328125 179.789062 L 919.082031 167.542969 C 917.089844 165.5 915.96875 162.898438 915.96875 160.039062 L 915.96875 158.304688 C 915.96875 154.273438 918.214844 150.648438 921.835938 148.863281 C 934.339844 142.585938 942.097656 130.03125 942.097656 116.050781 L 942.097656 114.316406 C 942.097656 104.515625 938.269531 95.277344 931.328125 88.339844 L 908.3125 65.324219 C 891.472656 48.480469 862.078125 48.480469 845.234375 65.324219 L 827.066406 83.492188 C 817.117188 93.441406 811.453125 107.167969 811.453125 122.378906 C 811.453125 129.625 812.878906 136.71875 815.738281 143.351562 C 833.90625 185.660156 862.484375 221.996094 898.972656 249.5 C 893.359375 256.289062 889.839844 264.863281 889.839844 274.355469 L 889.839844 313.546875 Z M 1059.675781 339.675781 C 1095.707031 339.675781 1125 310.382812 1125 274.355469 L 1125 65.324219 C 1125 29.292969 1095.707031 0 1059.675781 0 L 798.386719 0 C 762.359375 0 733.066406 29.292969 733.066406 65.324219 L 733.066406 274.355469 C 733.066406 310.382812 762.359375 339.675781 798.386719 339.675781 L 889.839844 339.675781 L 889.839844 549.425781 C 889.839844 555.394531 888.460938 561.316406 885.859375 566.671875 L 874.886719 511.863281 C 867.078125 472.671875 832.324219 444.195312 792.3125 444.195312 C 774.042969 444.195312 759.195312 459.042969 759.195312 477.3125 C 759.195312 483.847656 761.132812 490.226562 764.757812 495.6875 L 778.230469 515.84375 C 783.179688 523.296875 786.394531 531.972656 787.515625 540.851562 L 796.753906 614.949219 C 798.183594 626.230469 802.519531 636.945312 809.308594 646.03125 L 837.582031 683.691406 L 837.582031 705.484375 L 811.453125 705.484375 L 811.453125 810 L 1125 810 L 1125 705.484375 L 1098.871094 705.484375 L 1098.871094 682.46875 L 1118.109375 643.988281 C 1122.601562 634.957031 1125 624.851562 1125 614.746094 L 1125 457.257812 C 1125 435.621094 1107.445312 418.066406 1085.804688 418.066406 C 1080.652344 418.066406 1075.753906 419.136719 1071.210938 420.921875 C 1066.71875 404.285156 1051.613281 391.933594 1033.546875 391.933594 C 1028.394531 391.933594 1023.496094 393.007812 1018.953125 394.792969 C 1014.460938 378.15625 999.355469 365.804688 981.289062 365.804688 C 976.699219 365.804688 972.359375 366.777344 968.226562 368.203125 L 968.226562 339.675781 L 1059.675781 339.675781 " fill-opacity="1" fill-rule="nonzero"/><path fill="#a6a6a6" d="M 680.804688 692.417969 C 680.804688 714.058594 663.25 731.613281 641.613281 731.613281 L 380.324219 731.613281 C 358.683594 731.613281 341.128906 714.058594 341.128906 692.417969 L 341.128906 483.386719 C 341.128906 461.75 358.683594 444.195312 380.324219 444.195312 L 641.613281 444.195312 C 663.25 444.195312 680.804688 461.75 680.804688 483.386719 Z M 641.613281 418.066406 L 380.324219 418.066406 C 344.292969 418.066406 315 447.359375 315 483.386719 L 315 692.417969 C 315 728.449219 344.292969 757.742188 380.324219 757.742188 L 641.613281 757.742188 C 677.640625 757.742188 706.933594 728.449219 706.933594 692.417969 L 706.933594 483.386719 C 706.933594 447.359375 677.640625 418.066406 641.613281 418.066406 " fill-opacity="1" fill-rule="nonzero"/><path fill="#a6a6a6" d="M 680.804688 274.355469 C 680.804688 295.992188 663.25 313.546875 641.613281 313.546875 L 380.324219 313.546875 C 358.683594 313.546875 341.128906 295.992188 341.128906 274.355469 L 341.128906 65.324219 C 341.128906 43.683594 358.683594 26.128906 380.324219 26.128906 L 641.613281 26.128906 C 663.25 26.128906 680.804688 43.683594 680.804688 65.324219 Z M 641.613281 0 L 380.324219 0 C 344.292969 0 315 29.292969 315 65.324219 L 315 274.355469 C 315 310.382812 344.292969 339.675781 380.324219 339.675781 L 641.613281 339.675781 C 677.640625 339.675781 706.933594 310.382812 706.933594 274.355469 L 706.933594 65.324219 C 706.933594 29.292969 677.640625 0 641.613281 0 " fill-opacity="1" fill-rule="nonzero"/><path fill="#a6a6a6" d="M 510.96875 209.03125 C 496.578125 209.03125 484.839844 197.292969 484.839844 182.902344 L 484.839844 156.773438 C 484.839844 142.382812 496.578125 130.644531 510.96875 130.644531 C 525.359375 130.644531 537.097656 142.382812 537.097656 156.773438 L 537.097656 182.902344 C 537.097656 197.292969 525.359375 209.03125 510.96875 209.03125 Z M 510.96875 52.257812 C 453.351562 52.257812 406.453125 99.15625 406.453125 156.773438 L 406.453125 182.902344 C 406.453125 240.519531 453.351562 287.417969 510.96875 287.417969 L 510.96875 261.289062 C 467.742188 261.289062 432.582031 226.128906 432.582031 182.902344 L 432.582031 156.773438 C 432.582031 113.550781 467.742188 78.386719 510.96875 78.386719 C 554.191406 78.386719 589.355469 113.550781 589.355469 156.773438 L 589.355469 222.097656 C 589.355469 229.292969 583.484375 235.160156 576.289062 235.160156 C 569.09375 235.160156 563.226562 229.292969 563.226562 222.097656 L 563.226562 156.773438 C 563.226562 127.941406 539.800781 104.515625 510.96875 104.515625 C 482.132812 104.515625 458.710938 127.941406 458.710938 156.773438 L 458.710938 182.902344 C 458.710938 211.738281 482.132812 235.160156 510.96875 235.160156 C 520.765625 235.160156 529.800781 232.304688 537.65625 227.609375 C 540.363281 246.59375 556.539062 261.289062 576.289062 261.289062 C 597.929688 261.289062 615.484375 243.734375 615.484375 222.097656 L 615.484375 156.773438 C 615.484375 99.15625 568.585938 52.257812 510.96875 52.257812 " fill-opacity="1" fill-rule="nonzero"/><path fill="#a6a6a6" d="M 447.839844 595.507812 L 393.386719 639.089844 L 393.386719 541.054688 Z M 546.332031 586.320312 C 527.453125 605.203125 494.484375 605.203125 475.601562 586.320312 L 411.859375 522.582031 L 610.074219 522.582031 Z M 574.097656 595.558594 L 628.546875 541.054688 L 628.546875 639.089844 Z M 467.386719 613.367188 C 480.09375 622.25 495.148438 627.097656 510.96875 627.097656 C 526.789062 627.097656 541.84375 622.25 554.550781 613.367188 L 604.359375 653.226562 L 417.578125 653.226562 Z M 367.257812 679.355469 L 654.675781 679.355469 L 654.675781 496.453125 L 367.257812 496.453125 L 367.257812 679.355469 " fill-opacity="1" fill-rule="nonzero"/></svg>