<svg xmlns="http://www.w3.org/2000/svg" xmlns:xlink="http://www.w3.org/1999/xlink" width="1920" zoomAndPan="magnify" viewBox="0 0 1440 809.999993" height="1080" preserveAspectRatio="xMidYMid meet" version="1.0"><path fill="#a6a6a6" d="M 1128.257812 284.488281 L 991.066406 183.574219 L 991.066406 63.195312 C 991.066406 44.324219 975.75 29.058594 956.902344 29.058594 L 901.378906 29.058594 C 882.503906 29.058594 867.214844 44.347656 867.214844 63.195312 L 867.214844 92.441406 L 762.609375 15.503906 C 739.914062 -1.230469 702.753906 -1.230469 680.058594 15.503906 L 314.410156 284.488281 C 291.710938 301.195312 286.820312 333.464844 303.527344 356.1875 L 313.632812 369.898438 C 330.316406 392.621094 362.582031 397.542969 385.25 380.832031 L 680.058594 163.871094 C 702.753906 147.164062 739.914062 147.164062 762.609375 163.871094 L 1057.390625 380.832031 C 1080.085938 397.542969 1112.324219 392.597656 1129.007812 369.898438 L 1139.136719 356.1875 C 1155.820312 333.464844 1150.925781 301.195312 1128.257812 284.488281 Z M 1128.257812 284.488281 " fill-opacity="1" fill-rule="nonzero"/><path fill="#a6a6a6" d="M 1018.867188 399.707031 L 762.527344 210.253906 C 739.859375 193.492188 702.808594 193.492188 680.136719 210.253906 L 423.800781 399.707031 C 401.128906 416.46875 382.578125 440.980469 382.578125 454.269531 L 382.578125 728.945312 C 382.578125 773.535156 420.804688 809.707031 467.988281 809.707031 L 624.535156 809.707031 L 624.535156 566.734375 C 624.535156 547.964844 639.90625 532.621094 658.671875 532.621094 L 783.941406 532.621094 C 802.707031 532.621094 818.078125 547.964844 818.078125 566.734375 L 818.078125 809.707031 L 974.652344 809.707031 C 1021.808594 809.707031 1060.011719 773.535156 1060.011719 728.945312 L 1060.011719 454.269531 C 1060.035156 440.980469 1041.539062 416.46875 1018.867188 399.707031 Z M 1018.867188 399.707031 " fill-opacity="1" fill-rule="nonzero"/></svg>