<svg xmlns="http://www.w3.org/2000/svg" xmlns:xlink="http://www.w3.org/1999/xlink" width="1920" zoomAndPan="magnify" viewBox="0 0 1440 809.999993" height="1080" preserveAspectRatio="xMidYMid meet" version="1.0"><defs><clipPath id="ebd635965a"><path d="M 364.105469 1 L 1075.855469 1 L 1075.855469 809 L 364.105469 809 Z M 364.105469 1 " clip-rule="nonzero"/></clipPath></defs><g clip-path="url(#ebd635965a)"><path fill="#a6a6a6" d="M 725.753906 514.320312 L 725.753906 580.21875 C 725.753906 582.082031 726.675781 583.683594 728.292969 584.617188 L 779.867188 614.390625 C 783.261719 616.355469 787.484375 613.917969 787.484375 609.992188 L 787.484375 522 L 1000.355469 399.097656 L 1067.460938 437.839844 C 1072.84375 440.949219 1075.925781 446.285156 1075.925781 452.5 L 1075.925781 678.753906 C 1075.925781 684.972656 1072.84375 690.308594 1067.460938 693.417969 L 871.519531 806.542969 C 866.136719 809.652344 859.972656 809.652344 854.585938 806.542969 L 658.648438 693.417969 C 653.261719 690.308594 650.179688 684.972656 650.179688 678.753906 L 650.179688 474.007812 L 710.640625 508.914062 C 715.425781 511.675781 720.539062 513.476562 725.753906 514.320312 Z M 741.117188 3.625 C 735.734375 0.515625 729.570312 0.515625 724.1875 3.625 L 528.246094 116.75 C 522.859375 119.859375 519.78125 125.199219 519.78125 131.414062 L 519.78125 357.664062 C 519.78125 363.882812 522.859375 369.21875 528.246094 372.328125 L 724.1875 485.453125 C 729.570312 488.5625 735.734375 488.5625 741.117188 485.453125 L 937.058594 372.328125 C 942.441406 369.21875 945.523438 363.882812 945.523438 357.664062 L 945.523438 131.414062 C 945.523438 125.195312 942.441406 119.859375 937.058594 116.75 L 869.953125 78.007812 L 657.082031 200.910156 L 657.082031 288.90625 C 657.082031 292.828125 652.863281 295.265625 649.464844 293.304688 L 597.890625 263.527344 C 596.273438 262.59375 595.351562 260.992188 595.351562 259.128906 L 595.351562 165.269531 L 808.21875 42.367188 Z M 492.691406 290.542969 L 439.640625 321.171875 L 439.640625 415.03125 C 439.640625 416.898438 440.566406 418.496094 442.179688 419.429688 L 493.753906 449.207031 C 497.152344 451.167969 501.375 448.730469 501.375 444.808594 L 501.375 384.011719 C 504.886719 388.699219 509.378906 392.71875 514.699219 395.789062 L 623.089844 458.367188 L 623.089844 619.601562 L 585.40625 641.359375 C 580.023438 644.46875 573.859375 644.46875 568.476562 641.359375 L 372.539062 528.234375 C 367.152344 525.125 364.074219 519.789062 364.074219 513.570312 L 364.074219 287.316406 C 364.074219 281.097656 367.152344 275.761719 372.539062 272.65625 L 492.691406 203.285156 Z M 492.691406 290.542969 " fill-opacity="1" fill-rule="evenodd"/></g></svg>