<svg xmlns="http://www.w3.org/2000/svg" xmlns:xlink="http://www.w3.org/1999/xlink" width="1920" zoomAndPan="magnify" viewBox="0 0 1440 809.999993" height="1080" preserveAspectRatio="xMidYMid meet" version="1.0"><defs><clipPath id="5f9d399f1c"><path d="M 377 392 L 1072 392 L 1072 808.984375 L 377 808.984375 Z M 377 392 " clip-rule="nonzero"/></clipPath><clipPath id="cde003477b"><path d="M 932.023438 328 L 1406.683594 328 L 1406.683594 663 L 932.023438 663 Z M 932.023438 328 " clip-rule="nonzero"/></clipPath></defs><path fill="#a6a6a6" d="M 524.09375 201.144531 C 524.09375 90.5625 613.742188 0.929688 724.308594 0.929688 C 834.886719 0.929688 924.535156 90.5625 924.535156 201.144531 C 924.535156 311.722656 834.886719 401.371094 724.308594 401.371094 C 613.742188 401.371094 524.09375 311.722656 524.09375 201.144531 " fill-opacity="1" fill-rule="nonzero"/><g clip-path="url(#5f9d399f1c)"><path fill="#a6a6a6" d="M 1068.417969 699.503906 L 1039.875 589.453125 C 1016.597656 499.78125 953.796875 428.652344 873.0625 392.742188 C 831.984375 424.691406 780.390625 443.765625 724.308594 443.765625 C 668.238281 443.765625 616.644531 424.691406 575.554688 392.742188 C 494.820312 428.652344 432.019531 499.78125 408.753906 589.453125 L 380.210938 699.503906 C 365.828125 754.910156 407.65625 808.972656 464.90625 808.972656 L 983.726562 808.972656 C 1040.976562 808.972656 1082.800781 754.910156 1068.417969 699.503906 " fill-opacity="1" fill-rule="nonzero"/></g><path fill="#a6a6a6" d="M 160.394531 175.503906 C 160.394531 86.996094 232.148438 15.242188 320.652344 15.242188 C 409.160156 15.242188 480.914062 86.996094 480.914062 175.503906 C 480.914062 264.011719 409.160156 335.761719 320.652344 335.761719 C 232.148438 335.761719 160.394531 264.011719 160.394531 175.503906 " fill-opacity="1" fill-rule="nonzero"/><path fill="#a6a6a6" d="M 372.03125 587.976562 C 394.292969 502.195312 447.378906 430.890625 517.554688 384.640625 C 495.6875 361.035156 469.21875 341.976562 439.710938 328.855469 C 406.828125 354.429688 365.53125 369.707031 320.652344 369.707031 C 275.761719 369.707031 234.464844 354.429688 201.582031 328.855469 C 136.964844 357.589844 86.703125 414.527344 68.074219 486.308594 L 45.214844 574.394531 C 33.710938 618.742188 67.191406 662.019531 113.007812 662.019531 L 352.820312 662.019531 L 372.03125 587.976562 " fill-opacity="1" fill-rule="nonzero"/><path fill="#a6a6a6" d="M 1289.210938 175.503906 C 1289.210938 86.996094 1217.460938 15.242188 1128.953125 15.242188 C 1040.445312 15.242188 968.691406 86.996094 968.691406 175.503906 C 968.691406 264.011719 1040.445312 335.761719 1128.953125 335.761719 C 1217.460938 335.761719 1289.210938 264.011719 1289.210938 175.503906 " fill-opacity="1" fill-rule="nonzero"/><g clip-path="url(#cde003477b)"><path fill="#a6a6a6" d="M 1077.5625 587.976562 C 1055.316406 502.195312 1002.230469 430.890625 932.050781 384.640625 C 953.917969 361.035156 980.386719 341.976562 1009.894531 328.855469 C 1042.777344 354.429688 1084.0625 369.707031 1128.953125 369.707031 C 1173.84375 369.707031 1215.125 354.429688 1248.023438 328.855469 C 1312.640625 357.589844 1362.90625 414.527344 1381.53125 486.308594 L 1404.390625 574.394531 C 1415.894531 618.742188 1382.414062 662.019531 1336.585938 662.019531 L 1096.785156 662.019531 L 1077.5625 587.976562 " fill-opacity="1" fill-rule="nonzero"/></g></svg>