<svg xmlns="http://www.w3.org/2000/svg" xmlns:xlink="http://www.w3.org/1999/xlink" width="1920" zoomAndPan="magnify" viewBox="0 0 1440 809.999993" height="1080" preserveAspectRatio="xMidYMid meet" version="1.0"><path fill="#a6a6a6" d="M 499.617188 221.902344 C 499.621094 218.277344 499.714844 214.65625 499.898438 211.035156 C 500.078125 207.417969 500.347656 203.804688 500.707031 200.195312 C 501.066406 196.589844 501.511719 192.996094 502.046875 189.410156 C 502.582031 185.824219 503.203125 182.253906 503.914062 178.699219 C 504.621094 175.144531 505.417969 171.613281 506.300781 168.097656 C 507.183594 164.582031 508.152344 161.089844 509.207031 157.621094 C 510.261719 154.152344 511.402344 150.714844 512.625 147.300781 C 513.847656 143.890625 515.152344 140.511719 516.542969 137.164062 C 517.929688 133.816406 519.398438 130.503906 520.949219 127.226562 C 522.5 123.949219 524.132812 120.714844 525.839844 117.519531 C 527.550781 114.324219 529.339844 111.171875 531.203125 108.0625 C 533.066406 104.953125 535.007812 101.894531 537.019531 98.878906 C 539.035156 95.867188 541.121094 92.90625 543.28125 89.996094 C 545.441406 87.082031 547.667969 84.226562 549.96875 81.425781 C 552.269531 78.625 554.636719 75.878906 557.070312 73.195312 C 559.503906 70.507812 562.003906 67.882812 564.566406 65.320312 C 567.128906 62.757812 569.75 60.257812 572.4375 57.824219 C 575.121094 55.390625 577.863281 53.023438 580.667969 50.722656 C 583.46875 48.421875 586.324219 46.195312 589.234375 44.035156 C 592.144531 41.875 595.105469 39.785156 598.121094 37.773438 C 601.132812 35.757812 604.191406 33.816406 607.300781 31.953125 C 610.410156 30.089844 613.5625 28.300781 616.757812 26.589844 C 619.953125 24.878906 623.1875 23.25 626.464844 21.699219 C 629.738281 20.148438 633.050781 18.675781 636.398438 17.289062 C 639.746094 15.898438 643.125 14.59375 646.539062 13.367188 C 649.949219 12.144531 653.390625 11.007812 656.855469 9.953125 C 660.324219 8.894531 663.816406 7.925781 667.332031 7.042969 C 670.847656 6.160156 674.378906 5.363281 677.933594 4.652344 C 681.488281 3.941406 685.058594 3.320312 688.644531 2.785156 C 692.226562 2.25 695.824219 1.800781 699.429688 1.441406 C 703.035156 1.082031 706.648438 0.8125 710.269531 0.632812 C 713.890625 0.449219 717.511719 0.355469 721.136719 0.351562 C 1013.929688 10.707031 1014.503906 432.167969 721.886719 443.417969 C 718.253906 443.425781 714.625 443.34375 710.996094 443.175781 C 707.367188 443.003906 703.746094 442.746094 700.132812 442.398438 C 696.515625 442.050781 692.910156 441.613281 689.316406 441.089844 C 685.722656 440.566406 682.144531 439.953125 678.582031 439.253906 C 675.015625 438.550781 671.472656 437.765625 667.945312 436.890625 C 664.421875 436.015625 660.921875 435.054688 657.441406 434.007812 C 653.964844 432.960938 650.515625 431.828125 647.09375 430.609375 C 643.667969 429.394531 640.277344 428.09375 636.921875 426.710938 C 633.5625 425.328125 630.238281 423.863281 626.953125 422.316406 C 623.667969 420.769531 620.421875 419.144531 617.214844 417.4375 C 614.007812 415.734375 610.84375 413.949219 607.726562 412.089844 C 604.605469 410.226562 601.535156 408.289062 598.511719 406.277344 C 595.488281 404.265625 592.515625 402.179688 589.59375 400.023438 C 586.671875 397.863281 583.804688 395.636719 580.996094 393.335938 C 578.183594 391.035156 575.429688 388.671875 572.734375 386.234375 C 570.039062 383.800781 567.402344 381.300781 564.832031 378.738281 C 562.257812 376.175781 559.75 373.546875 557.308594 370.863281 C 554.863281 368.175781 552.488281 365.429688 550.179688 362.625 C 547.871094 359.820312 545.632812 356.960938 543.464844 354.046875 C 541.292969 351.132812 539.199219 348.167969 537.175781 345.152344 C 535.15625 342.136719 533.207031 339.070312 531.335938 335.957031 C 529.464844 332.84375 527.667969 329.6875 525.953125 326.488281 C 524.234375 323.285156 522.597656 320.046875 521.039062 316.765625 C 519.484375 313.484375 518.007812 310.167969 516.613281 306.8125 C 515.21875 303.457031 513.90625 300.074219 512.679688 296.65625 C 511.449219 293.234375 510.308594 289.789062 509.25 286.316406 C 508.191406 282.839844 507.21875 279.34375 506.332031 275.820312 C 505.445312 272.296875 504.644531 268.757812 503.929688 265.195312 C 503.21875 261.632812 502.59375 258.058594 502.054688 254.464844 C 501.519531 250.871094 501.070312 247.269531 500.710938 243.65625 C 500.351562 240.042969 500.078125 236.421875 499.898438 232.792969 C 499.714844 229.164062 499.621094 225.535156 499.617188 221.902344 Z M 945.347656 443.519531 C 943.878906 442.621094 942.355469 441.832031 940.773438 441.148438 C 939.191406 440.46875 937.570312 439.90625 935.910156 439.460938 C 934.246094 439.011719 932.5625 438.6875 930.851562 438.480469 C 929.144531 438.277344 927.429688 438.195312 925.707031 438.238281 C 923.984375 438.28125 922.277344 438.445312 920.582031 438.734375 C 918.882812 439.023438 917.214844 439.433594 915.578125 439.960938 C 913.941406 440.488281 912.347656 441.132812 910.800781 441.890625 C 909.257812 442.648438 907.773438 443.511719 906.351562 444.484375 C 903.054688 447.160156 899.699219 449.765625 896.292969 452.300781 C 892.882812 454.832031 889.417969 457.292969 885.902344 459.675781 C 882.386719 462.058594 878.820312 464.367188 875.207031 466.597656 C 871.59375 468.828125 867.929688 470.980469 864.222656 473.054688 C 860.515625 475.125 856.765625 477.117188 852.972656 479.03125 C 849.175781 480.941406 845.34375 482.769531 841.472656 484.515625 C 837.597656 486.261719 833.691406 487.925781 829.746094 489.503906 C 825.804688 491.082031 821.828125 492.574219 817.820312 493.980469 C 813.8125 495.386719 809.773438 496.707031 805.710938 497.9375 C 801.644531 499.171875 797.554688 500.316406 793.441406 501.371094 C 789.324219 502.429688 785.191406 503.398438 781.035156 504.277344 C 776.878906 505.152344 772.707031 505.941406 768.515625 506.640625 C 764.324219 507.339844 760.121094 507.949219 755.90625 508.464844 C 751.691406 508.984375 747.464844 509.410156 743.230469 509.746094 C 738.996094 510.082031 734.753906 510.328125 730.511719 510.480469 C 726.265625 510.632812 722.019531 510.695312 717.769531 510.664062 C 713.523438 510.632812 709.277344 510.511719 705.035156 510.300781 C 700.792969 510.089844 696.558594 509.785156 692.328125 509.390625 C 688.097656 508.992188 683.878906 508.507812 679.671875 507.929688 C 675.460938 507.355469 671.269531 506.6875 667.089844 505.929688 C 662.90625 505.171875 658.746094 504.324219 654.601562 503.386719 C 650.460938 502.453125 646.339844 501.425781 642.238281 500.3125 C 638.140625 499.195312 634.066406 497.996094 630.019531 496.707031 C 625.972656 495.414062 621.953125 494.039062 617.964844 492.578125 C 613.980469 491.113281 610.023438 489.566406 606.101562 487.933594 C 602.179688 486.300781 598.296875 484.582031 594.449219 482.78125 C 590.601562 480.980469 586.796875 479.097656 583.027344 477.136719 C 579.261719 475.171875 575.539062 473.125 571.863281 471 C 568.183594 468.875 564.550781 466.671875 560.96875 464.390625 C 557.386719 462.109375 553.851562 459.753906 550.371094 457.320312 C 546.890625 454.886719 543.460938 452.378906 540.085938 449.800781 C 536.714844 447.21875 533.398438 444.566406 530.136719 441.839844 C 528.910156 441.277344 527.65625 440.789062 526.371094 440.378906 C 525.089844 439.96875 523.785156 439.636719 522.460938 439.382812 C 521.132812 439.128906 519.800781 438.957031 518.453125 438.863281 C 517.109375 438.769531 515.761719 438.761719 514.414062 438.832031 C 513.070312 438.902344 511.730469 439.054688 510.402344 439.285156 C 509.074219 439.519531 507.765625 439.832031 506.472656 440.222656 C 505.183594 440.613281 503.921875 441.078125 502.6875 441.625 C 501.453125 442.167969 500.253906 442.785156 499.09375 443.472656 C 492.289062 448 485.625 452.734375 479.109375 457.671875 C 472.59375 462.613281 466.234375 467.746094 460.035156 473.078125 C 453.835938 478.40625 447.804688 483.921875 441.945312 489.625 C 436.085938 495.328125 430.40625 501.203125 424.910156 507.257812 C 419.410156 513.308594 414.105469 519.523438 408.988281 525.902344 C 403.875 532.28125 398.960938 538.8125 394.25 545.492188 C 389.535156 552.175781 385.035156 558.996094 380.742188 565.953125 C 376.449219 572.914062 372.375 579.996094 368.519531 587.207031 C 364.664062 594.417969 361.035156 601.738281 357.628906 609.171875 C 354.222656 616.609375 351.050781 624.140625 348.109375 631.769531 C 345.171875 639.398438 342.46875 647.109375 340.003906 654.90625 C 337.535156 662.703125 335.3125 670.566406 333.332031 678.5 C 331.351562 686.429688 329.617188 694.417969 328.128906 702.457031 C 326.640625 710.496094 325.398438 718.574219 324.410156 726.691406 C 323.417969 734.804688 322.675781 742.945312 322.1875 751.105469 C 321.699219 759.269531 321.460938 767.4375 321.472656 775.613281 C 321.472656 776.730469 321.527344 777.839844 321.636719 778.949219 C 321.746094 780.058594 321.90625 781.160156 322.125 782.253906 C 322.34375 783.347656 322.613281 784.429688 322.933594 785.496094 C 323.257812 786.5625 323.632812 787.609375 324.058594 788.640625 C 324.484375 789.671875 324.960938 790.675781 325.488281 791.660156 C 326.011719 792.644531 326.585938 793.597656 327.203125 794.527344 C 327.824219 795.453125 328.488281 796.347656 329.195312 797.210938 C 329.902344 798.070312 330.648438 798.894531 331.4375 799.683594 C 332.226562 800.472656 333.050781 801.222656 333.910156 801.929688 C 334.773438 802.636719 335.667969 803.296875 336.59375 803.917969 C 337.523438 804.535156 338.476562 805.109375 339.460938 805.632812 C 340.445312 806.160156 341.449219 806.636719 342.480469 807.0625 C 343.511719 807.488281 344.558594 807.863281 345.625 808.1875 C 346.691406 808.507812 347.773438 808.78125 348.867188 808.996094 C 349.960938 809.214844 351.0625 809.375 352.171875 809.484375 C 353.28125 809.59375 354.394531 809.648438 355.507812 809.648438 L 1087.894531 809.648438 C 1089.011719 809.648438 1090.121094 809.59375 1091.230469 809.484375 C 1092.339844 809.375 1093.441406 809.214844 1094.535156 808.996094 C 1095.628906 808.78125 1096.710938 808.507812 1097.777344 808.1875 C 1098.84375 807.863281 1099.890625 807.488281 1100.921875 807.0625 C 1101.953125 806.636719 1102.960938 806.160156 1103.941406 805.632812 C 1104.925781 805.109375 1105.882812 804.535156 1106.808594 803.917969 C 1107.734375 803.296875 1108.628906 802.636719 1109.492188 801.929688 C 1110.351562 801.222656 1111.179688 800.472656 1111.964844 799.683594 C 1112.753906 798.894531 1113.503906 798.070312 1114.210938 797.210938 C 1114.917969 796.347656 1115.578125 795.453125 1116.199219 794.527344 C 1116.820312 793.597656 1117.390625 792.644531 1117.917969 791.660156 C 1118.441406 790.675781 1118.917969 789.671875 1119.34375 788.640625 C 1119.769531 787.609375 1120.144531 786.5625 1120.46875 785.496094 C 1120.792969 784.429688 1121.0625 783.347656 1121.277344 782.253906 C 1121.496094 781.160156 1121.65625 780.058594 1121.765625 778.949219 C 1121.875 777.839844 1121.929688 776.730469 1121.929688 775.613281 C 1121.921875 767.457031 1121.667969 759.304688 1121.164062 751.164062 C 1120.660156 743.019531 1119.910156 734.898438 1118.910156 726.804688 C 1117.914062 718.707031 1116.667969 710.648438 1115.179688 702.625 C 1113.6875 694.605469 1111.953125 686.636719 1109.976562 678.722656 C 1108 670.808594 1105.785156 662.960938 1103.328125 655.179688 C 1100.875 647.398438 1098.183594 639.703125 1095.257812 632.085938 C 1092.332031 624.46875 1089.179688 616.949219 1085.796875 609.527344 C 1082.410156 602.105469 1078.804688 594.789062 1074.972656 587.585938 C 1071.144531 580.382812 1067.097656 573.304688 1062.835938 566.347656 C 1058.574219 559.390625 1054.101562 552.570312 1049.425781 545.886719 C 1044.746094 539.203125 1039.871094 532.667969 1034.792969 526.285156 C 1029.714844 519.898438 1024.449219 513.671875 1018.992188 507.609375 C 1013.535156 501.542969 1007.898438 495.648438 1002.082031 489.929688 C 996.265625 484.207031 990.28125 478.671875 984.125 473.316406 C 977.972656 467.960938 971.660156 462.796875 965.191406 457.828125 C 958.722656 452.855469 952.105469 448.085938 945.347656 443.519531 Z M 945.347656 443.519531 " fill-opacity="1" fill-rule="nonzero"/></svg>